<svg width="900" height="297" viewBox="0 0 900 297" fill="none" xmlns="http://www.w3.org/2000/svg">
<path d="M243.274 31.306C242.081 28.0288 234.812 26.2412 233.585 19.5103C231.066 -17.9732 286.316 5.69534 255.438 30.9749C253.637 36.2162 254.377 47.4712 254.488 53.0877C254.764 66.7592 254.256 81.3686 254.731 94.6098C275.887 154.714 264.464 210.183 219.444 254.817L230.227 284.047C210.628 302.562 170.503 296.769 144.938 291.23C120.269 285.15 97.7754 272.836 72.2772 268.908C51.6621 265.73 32.1518 266.701 11.592 268.389C10.4761 268.477 9.6807 267.33 10.1558 266.315L27.5118 230.266C27.7438 229.791 27.6885 229.239 27.3902 228.809C-75.4532 81.181 136.818 -57.8512 243.274 77.6942V31.306ZM183.418 50.8808C184.589 50.4174 184.622 48.7622 183.484 48.2216C144.85 29.5956 89.8652 33.2921 59.2077 63.8903C59.9258 67.3219 70.0566 62.2572 72.454 61.6944C96.6706 55.9787 117.706 58.8145 139.425 70.4226C153.202 62.6655 168.691 56.6628 183.418 50.8919V50.8808ZM198.166 61.4517C158.262 69.1095 119.639 97.9201 99.6977 132.204C109.077 145.467 111.331 161.61 102.15 175.568C125.56 210.779 171.044 232.792 213.843 235.01C265.712 189.913 260.52 101.054 204.243 61.3744C201.989 60.7234 200.31 61.231 198.166 61.4517ZM126.975 81.1038C128.002 80.3976 127.704 78.8197 126.5 78.4997C106.547 69.6612 84.6065 68.6571 64.8752 78.4997C64.2566 78.7755 63.903 79.4486 64.0467 80.1217L72.3546 120.717C72.4761 121.335 72.9843 121.787 73.603 121.865C74.6083 121.677 88.1749 124.447 88.3959 122.736C98.615 105.898 112.403 93.7822 126.975 81.1148V81.1038ZM48.4914 74.8142C48.2705 73.777 47.0331 73.3136 46.1935 73.9646C9.06203 110.907 4.23417 172.633 35.6429 214.376C36.2174 218.492 63.9141 190.399 64.7206 190.774C65.1293 188.567 64.3228 189.428 63.3175 188.909C31.2901 178.945 32.9804 138.162 59.0531 123.321L48.4804 74.8032L48.4914 74.8142ZM67.7476 136.43C38.3827 146.78 59.7712 189.593 85.1589 172.578C102.67 159.525 91.1026 131.652 67.7476 136.43ZM195.692 246.023C153.71 241.686 118.159 215.656 90.3182 186.592L82.7063 188.887C81.9882 189.108 81.5463 189.836 81.7009 190.575L89.1361 225.642C89.2355 226.117 89.5669 226.503 90.0089 226.679C123.561 239.987 158.505 258.237 195.824 248.858C197.404 248.472 197.293 246.21 195.681 246.011L195.692 246.023ZM73.1942 220.257C69.4821 197.394 70.5427 203.96 55.7498 217.444C54.9212 218.293 55.4073 219.728 56.5894 219.893C59.6276 219.573 73.7024 224.186 73.1942 220.257ZM211.037 276.985L205.038 262.386C204.751 261.702 203.999 261.349 203.292 261.559C138.475 280.99 97.1678 227.783 42.9013 235.187C41.3546 235.474 29.7213 254.662 35.433 253.14C73.161 249.598 107.243 264.682 142.066 275.76C161.322 280.394 194.841 287.523 211.037 276.985Z" fill="white"/>
<path d="M194.772 86.7316C201.931 84.5799 210.04 97.17 213.664 102.731C216.856 107.62 232.091 132.281 216.691 129.556C212.084 128.739 208.184 116.469 205.499 111.989C203.091 107.973 200.119 104.066 197.269 100.348C195.17 97.6114 186.298 89.2805 194.761 86.7316H194.772Z" fill="#FF7A29"/>
<path d="M218.557 149.152C213.972 144.562 220.28 134.819 226.666 139.409C234.322 144.915 224.235 154.813 218.557 149.152Z" fill="#FF7A29"/>
<g filter="url(#filter0_d_30_13)">
<path d="M373.28 148C371.04 148 369.32 147.04 368.12 145.12C366.92 143.2 366.8 141.16 367.76 139L401.48 58.48C402.68 55.68 404.64 54.28 407.36 54.28C410.24 54.28 412.2 55.68 413.24 58.48L447.08 139.24C447.96 141.48 447.8 143.52 446.6 145.36C445.48 147.12 443.76 148 441.44 148C440.24 148 439.08 147.68 437.96 147.04C436.92 146.32 436.16 145.36 435.68 144.16L405.92 70.24H409.28L379.04 144.16C378.48 145.44 377.64 146.4 376.52 147.04C375.48 147.68 374.4 148 373.28 148ZM379.64 127.36L384.44 117.04H431.48L436.28 127.36H379.64ZM486.455 148.48C480.855 148.48 475.655 147.64 470.855 145.96C466.135 144.2 462.455 142 459.815 139.36C458.615 138.08 458.095 136.64 458.255 135.04C458.495 133.36 459.295 132 460.655 130.96C462.255 129.68 463.815 129.16 465.335 129.4C466.935 129.56 468.295 130.24 469.415 131.44C470.775 132.96 472.935 134.4 475.895 135.76C478.935 137.04 482.295 137.68 485.975 137.68C490.615 137.68 494.135 136.92 496.535 135.4C499.015 133.88 500.295 131.92 500.375 129.52C500.455 127.12 499.295 125.04 496.895 123.28C494.575 121.52 490.295 120.08 484.055 118.96C475.975 117.36 470.095 114.96 466.415 111.76C462.815 108.56 461.015 104.64 461.015 100C461.015 95.92 462.215 92.56 464.615 89.92C467.015 87.2 470.095 85.2 473.855 83.92C477.615 82.56 481.535 81.88 485.615 81.88C490.895 81.88 495.575 82.72 499.655 84.4C503.735 86.08 506.975 88.4 509.375 91.36C510.495 92.64 511.015 94 510.935 95.44C510.855 96.8 510.175 97.96 508.895 98.92C507.615 99.8 506.095 100.08 504.335 99.76C502.575 99.44 501.095 98.72 499.895 97.6C497.895 95.68 495.735 94.36 493.415 93.64C491.095 92.92 488.415 92.56 485.375 92.56C481.855 92.56 478.855 93.16 476.375 94.36C473.975 95.56 472.775 97.32 472.775 99.64C472.775 101.08 473.135 102.4 473.855 103.6C474.655 104.72 476.175 105.76 478.415 106.72C480.655 107.6 483.935 108.48 488.255 109.36C494.255 110.56 498.975 112.08 502.415 113.92C505.935 115.76 508.455 117.92 509.975 120.4C511.495 122.8 512.255 125.6 512.255 128.8C512.255 132.48 511.255 135.8 509.255 138.76C507.335 141.72 504.455 144.08 500.615 145.84C496.855 147.6 492.135 148.48 486.455 148.48ZM554.011 148C550.011 148 546.411 147 543.211 145C540.011 142.92 537.491 140.12 535.651 136.6C533.811 133.08 532.891 129.12 532.891 124.72V67.48C532.891 65.72 533.451 64.28 534.571 63.16C535.691 62.04 537.131 61.48 538.891 61.48C540.651 61.48 542.091 62.04 543.211 63.16C544.331 64.28 544.891 65.72 544.891 67.48V124.72C544.891 127.92 545.771 130.6 547.531 132.76C549.291 134.92 551.451 136 554.011 136H558.091C559.531 136 560.731 136.56 561.691 137.68C562.731 138.8 563.251 140.24 563.251 142C563.251 143.76 562.571 145.2 561.211 146.32C559.931 147.44 558.251 148 556.171 148H554.011ZM527.371 95.08C525.691 95.08 524.331 94.6 523.291 93.64C522.251 92.68 521.731 91.48 521.731 90.04C521.731 88.44 522.251 87.16 523.291 86.2C524.331 85.24 525.691 84.76 527.371 84.76H555.091C556.771 84.76 558.131 85.24 559.171 86.2C560.211 87.16 560.731 88.44 560.731 90.04C560.731 91.48 560.211 92.68 559.171 93.64C558.131 94.6 556.771 95.08 555.091 95.08H527.371ZM586.575 106.96C586.575 102.16 587.735 97.88 590.055 94.12C592.455 90.28 595.655 87.24 599.655 85C603.655 82.76 608.055 81.64 612.855 81.64C617.655 81.64 621.215 82.44 623.535 84.04C625.935 85.56 626.855 87.4 626.295 89.56C626.055 90.68 625.575 91.56 624.855 92.2C624.215 92.76 623.455 93.12 622.575 93.28C621.695 93.44 620.735 93.4 619.695 93.16C614.575 92.12 609.975 92.04 605.895 92.92C601.815 93.8 598.575 95.44 596.175 97.84C593.855 100.24 592.695 103.28 592.695 106.96H586.575ZM586.695 148C584.775 148 583.295 147.52 582.255 146.56C581.215 145.52 580.695 144 580.695 142V88.36C580.695 86.44 581.215 84.96 582.255 83.92C583.295 82.88 584.775 82.36 586.695 82.36C588.695 82.36 590.175 82.88 591.135 83.92C592.175 84.88 592.695 86.36 592.695 88.36V142C592.695 143.92 592.175 145.4 591.135 146.44C590.175 147.48 588.695 148 586.695 148ZM664.01 148.48C658.17 148.48 652.93 147.04 648.29 144.16C643.65 141.2 639.97 137.24 637.25 132.28C634.61 127.24 633.29 121.56 633.29 115.24C633.29 108.92 634.73 103.24 637.61 98.2C640.57 93.16 644.53 89.2 649.49 86.32C654.53 83.36 660.17 81.88 666.41 81.88C672.65 81.88 678.25 83.36 683.21 86.32C688.17 89.2 692.09 93.16 694.97 98.2C697.93 103.24 699.41 108.92 699.41 115.24H694.73C694.73 121.56 693.37 127.24 690.65 132.28C688.01 137.24 684.37 141.2 679.73 144.16C675.09 147.04 669.85 148.48 664.01 148.48ZM666.41 137.68C670.49 137.68 674.13 136.72 677.33 134.8C680.53 132.8 683.05 130.12 684.89 126.76C686.73 123.32 687.65 119.48 687.65 115.24C687.65 110.92 686.73 107.08 684.89 103.72C683.05 100.28 680.53 97.6 677.33 95.68C674.13 93.68 670.49 92.68 666.41 92.68C662.41 92.68 658.77 93.68 655.49 95.68C652.29 97.6 649.73 100.28 647.81 103.72C645.97 107.08 645.05 110.92 645.05 115.24C645.05 119.48 645.97 123.32 647.81 126.76C649.73 130.12 652.29 132.8 655.49 134.8C658.77 136.72 662.41 137.68 666.41 137.68ZM693.29 148.12C691.53 148.12 690.05 147.56 688.85 146.44C687.73 145.24 687.17 143.76 687.17 142V123.64L689.45 110.92L699.41 115.24V142C699.41 143.76 698.81 145.24 697.61 146.44C696.49 147.56 695.05 148.12 693.29 148.12ZM738.594 147.88C736.114 147.88 734.194 146.56 732.834 143.92L707.394 90.28C706.754 88.92 706.674 87.6 707.154 86.32C707.714 84.96 708.754 83.92 710.274 83.2C711.634 82.48 712.994 82.36 714.354 82.84C715.794 83.32 716.874 84.24 717.594 85.6L741.354 136.84H735.594L759.114 85.6C759.834 84.24 760.914 83.32 762.354 82.84C763.874 82.36 765.394 82.48 766.914 83.2C768.354 83.84 769.314 84.84 769.794 86.2C770.274 87.56 770.194 88.92 769.554 90.28L744.114 143.92C742.914 146.56 741.074 147.88 738.594 147.88ZM791.856 148C790.096 148 788.616 147.44 787.416 146.32C786.296 145.12 785.736 143.64 785.736 141.88V88.48C785.736 86.64 786.296 85.16 787.416 84.04C788.616 82.92 790.096 82.36 791.856 82.36C793.696 82.36 795.176 82.92 796.296 84.04C797.416 85.16 797.976 86.64 797.976 88.48V141.88C797.976 143.64 797.416 145.12 796.296 146.32C795.176 147.44 793.696 148 791.856 148ZM791.856 71.68C789.696 71.68 787.816 70.92 786.216 69.4C784.696 67.8 783.936 65.92 783.936 63.76C783.936 61.6 784.696 59.76 786.216 58.24C787.816 56.64 789.696 55.84 791.856 55.84C794.016 55.84 795.856 56.64 797.376 58.24C798.976 59.76 799.776 61.6 799.776 63.76C799.776 65.92 798.976 67.8 797.376 69.4C795.856 70.92 794.016 71.68 791.856 71.68ZM850.507 148.48C844.667 148.48 839.427 147.04 834.787 144.16C830.147 141.2 826.467 137.24 823.747 132.28C821.107 127.24 819.787 121.56 819.787 115.24C819.787 108.92 821.227 103.24 824.107 98.2C827.067 93.16 831.027 89.2 835.987 86.32C841.027 83.36 846.667 81.88 852.907 81.88C859.147 81.88 864.747 83.36 869.707 86.32C874.667 89.2 878.587 93.16 881.467 98.2C884.427 103.24 885.907 108.92 885.907 115.24H881.227C881.227 121.56 879.867 127.24 877.147 132.28C874.507 137.24 870.867 141.2 866.227 144.16C861.587 147.04 856.347 148.48 850.507 148.48ZM852.907 137.68C856.987 137.68 860.627 136.72 863.827 134.8C867.027 132.8 869.547 130.12 871.387 126.76C873.227 123.32 874.147 119.48 874.147 115.24C874.147 110.92 873.227 107.08 871.387 103.72C869.547 100.28 867.027 97.6 863.827 95.68C860.627 93.68 856.987 92.68 852.907 92.68C848.907 92.68 845.267 93.68 841.987 95.68C838.787 97.6 836.227 100.28 834.307 103.72C832.467 107.08 831.547 110.92 831.547 115.24C831.547 119.48 832.467 123.32 834.307 126.76C836.227 130.12 838.787 132.8 841.987 134.8C845.267 136.72 848.907 137.68 852.907 137.68ZM879.787 148.12C878.027 148.12 876.547 147.56 875.347 146.44C874.227 145.24 873.667 143.76 873.667 142V123.64L875.947 110.92L885.907 115.24V142C885.907 143.76 885.307 145.24 884.107 146.44C882.987 147.56 881.547 148.12 879.787 148.12Z" fill="white"/>
</g>
<g filter="url(#filter1_d_30_13)">
<path d="M391.72 244.8C388.36 244.8 385.267 244.347 382.44 243.44C379.667 242.48 377.267 241.147 375.24 239.44C373.213 237.68 371.613 235.627 370.44 233.28C370.12 232.64 370.093 232.027 370.36 231.44C370.68 230.853 371.187 230.453 371.88 230.24C372.467 230.027 373.053 230.053 373.64 230.32C374.227 230.587 374.68 231.013 375 231.6C375.96 233.307 377.213 234.8 378.76 236.08C380.36 237.36 382.227 238.347 384.36 239.04C386.547 239.68 389 240 391.72 240C394.76 240 397.373 239.493 399.56 238.48C401.8 237.467 403.507 235.973 404.68 234C405.907 232.027 406.52 229.627 406.52 226.8C406.52 223.28 405.24 220.32 402.68 217.92C400.173 215.467 396.333 213.893 391.16 213.2C385.187 212.347 380.52 210.427 377.16 207.44C373.8 204.4 372.12 200.72 372.12 196.4C372.12 193.253 372.893 190.507 374.44 188.16C376.04 185.813 378.253 184 381.08 182.72C383.96 181.387 387.267 180.72 391 180.72C393.773 180.72 396.333 181.173 398.68 182.08C401.027 182.987 403.08 184.187 404.84 185.68C406.6 187.12 407.96 188.64 408.92 190.24C409.293 190.827 409.373 191.467 409.16 192.16C409 192.8 408.573 193.253 407.88 193.52C407.293 193.733 406.707 193.76 406.12 193.6C405.533 193.387 405.053 193.013 404.68 192.48C403.933 191.36 402.973 190.267 401.8 189.2C400.627 188.133 399.16 187.253 397.4 186.56C395.64 185.867 393.507 185.52 391 185.52C386.627 185.52 383.187 186.507 380.68 188.48C378.173 190.453 376.92 193.253 376.92 196.88C376.92 198.8 377.427 200.56 378.44 202.16C379.507 203.707 381.16 205.04 383.4 206.16C385.64 207.28 388.493 208.133 391.96 208.72C398.84 209.893 403.773 212.027 406.76 215.12C409.8 218.16 411.32 222.053 411.32 226.8C411.32 229.573 410.84 232.08 409.88 234.32C408.973 236.56 407.64 238.453 405.88 240C404.173 241.547 402.12 242.747 399.72 243.6C397.32 244.4 394.653 244.8 391.72 244.8ZM441.604 244C438.671 243.947 436.058 243.28 433.764 242C431.471 240.667 429.684 238.853 428.404 236.56C427.124 234.213 426.484 231.573 426.484 228.64V188.8C426.484 188.053 426.698 187.467 427.124 187.04C427.604 186.56 428.191 186.32 428.884 186.32C429.631 186.32 430.218 186.56 430.644 187.04C431.124 187.467 431.364 188.053 431.364 188.8V228.64C431.364 231.733 432.324 234.267 434.244 236.24C436.164 238.16 438.644 239.12 441.684 239.12H443.444C444.191 239.12 444.778 239.36 445.204 239.84C445.684 240.267 445.924 240.853 445.924 241.6C445.924 242.293 445.684 242.88 445.204 243.36C444.778 243.787 444.191 244 443.444 244H441.604ZM420.244 206.16C419.604 206.16 419.071 205.973 418.644 205.6C418.271 205.173 418.084 204.64 418.084 204C418.084 203.36 418.271 202.853 418.644 202.48C419.071 202.053 419.604 201.84 420.244 201.84H441.924C442.564 201.84 443.071 202.053 443.444 202.48C443.871 202.853 444.084 203.36 444.084 204C444.084 204.64 443.871 205.173 443.444 205.6C443.071 205.973 442.564 206.16 441.924 206.16H420.244ZM475.39 244.56C471.55 244.56 468.11 243.787 465.07 242.24C462.03 240.64 459.603 238.32 457.79 235.28C456.03 232.24 455.15 228.533 455.15 224.16V202.64C455.15 201.947 455.363 201.387 455.79 200.96C456.27 200.48 456.857 200.24 457.55 200.24C458.243 200.24 458.803 200.48 459.23 200.96C459.71 201.387 459.95 201.947 459.95 202.64V224.16C459.95 227.627 460.617 230.533 461.95 232.88C463.337 235.173 465.177 236.907 467.47 238.08C469.817 239.2 472.457 239.76 475.39 239.76C478.27 239.76 480.857 239.2 483.15 238.08C485.443 236.96 487.257 235.467 488.59 233.6C489.923 231.68 490.59 229.52 490.59 227.12H494.59C494.377 230.427 493.39 233.413 491.63 236.08C489.87 238.693 487.577 240.773 484.75 242.32C481.977 243.813 478.857 244.56 475.39 244.56ZM492.99 244C492.297 244 491.71 243.787 491.23 243.36C490.803 242.88 490.59 242.293 490.59 241.6V202.64C490.59 201.893 490.803 201.307 491.23 200.88C491.71 200.453 492.297 200.24 492.99 200.24C493.737 200.24 494.323 200.453 494.75 200.88C495.177 201.307 495.39 201.893 495.39 202.64V241.6C495.39 242.293 495.177 242.88 494.75 243.36C494.323 243.787 493.737 244 492.99 244ZM529.778 244.48C525.511 244.48 521.671 243.52 518.258 241.6C514.898 239.627 512.231 236.96 510.258 233.6C508.338 230.187 507.378 226.347 507.378 222.08C507.378 217.813 508.338 214 510.258 210.64C512.231 207.28 514.898 204.64 518.258 202.72C521.671 200.747 525.511 199.76 529.778 199.76C533.618 199.76 537.058 200.587 540.098 202.24C543.191 203.893 545.591 206.107 547.298 208.88V183.92C547.298 183.173 547.511 182.587 547.938 182.16C548.418 181.733 549.005 181.52 549.698 181.52C550.445 181.52 551.031 181.733 551.458 182.16C551.885 182.587 552.098 183.173 552.098 183.92V222.56C552.045 226.72 551.031 230.453 549.058 233.76C547.085 237.067 544.418 239.68 541.058 241.6C537.751 243.52 533.991 244.48 529.778 244.48ZM529.778 240C533.138 240 536.125 239.227 538.738 237.68C541.405 236.08 543.485 233.947 544.978 231.28C546.525 228.56 547.298 225.493 547.298 222.08C547.298 218.667 546.525 215.627 544.978 212.96C543.485 210.293 541.405 208.187 538.738 206.64C536.125 205.04 533.138 204.24 529.778 204.24C526.471 204.24 523.485 205.04 520.818 206.64C518.151 208.187 516.045 210.293 514.498 212.96C512.951 215.627 512.178 218.667 512.178 222.08C512.178 225.493 512.951 228.56 514.498 231.28C516.045 233.947 518.151 236.08 520.818 237.68C523.485 239.227 526.471 240 529.778 240ZM570.497 244C569.804 244 569.217 243.787 568.737 243.36C568.31 242.88 568.097 242.293 568.097 241.6V202.64C568.097 201.893 568.31 201.307 568.737 200.88C569.217 200.453 569.804 200.24 570.497 200.24C571.244 200.24 571.83 200.453 572.257 200.88C572.684 201.307 572.897 201.893 572.897 202.64V241.6C572.897 242.293 572.684 242.88 572.257 243.36C571.83 243.787 571.244 244 570.497 244ZM570.417 191.04C569.404 191.04 568.524 190.693 567.777 190C567.084 189.253 566.737 188.347 566.737 187.28C566.737 186.053 567.11 185.147 567.857 184.56C568.657 183.92 569.537 183.6 570.497 183.6C571.404 183.6 572.23 183.92 572.977 184.56C573.777 185.147 574.177 186.053 574.177 187.28C574.177 188.347 573.804 189.253 573.057 190C572.364 190.693 571.484 191.04 570.417 191.04ZM608.919 244.48C604.652 244.48 600.812 243.52 597.399 241.6C594.039 239.627 591.372 236.96 589.399 233.6C587.479 230.187 586.519 226.373 586.519 222.16C586.519 217.893 587.479 214.08 589.399 210.72C591.372 207.307 594.039 204.64 597.399 202.72C600.812 200.747 604.652 199.76 608.919 199.76C613.185 199.76 616.999 200.747 620.359 202.72C623.719 204.64 626.359 207.307 628.279 210.72C630.252 214.08 631.239 217.893 631.239 222.16C631.239 226.373 630.252 230.187 628.279 233.6C626.359 236.96 623.719 239.627 620.359 241.6C616.999 243.52 613.185 244.48 608.919 244.48ZM608.919 240C612.279 240 615.265 239.227 617.879 237.68C620.545 236.08 622.625 233.947 624.119 231.28C625.665 228.56 626.439 225.493 626.439 222.08C626.439 218.72 625.665 215.707 624.119 213.04C622.625 210.32 620.545 208.187 617.879 206.64C615.265 205.04 612.279 204.24 608.919 204.24C605.612 204.24 602.625 205.04 599.959 206.64C597.292 208.187 595.185 210.32 593.639 213.04C592.092 215.707 591.319 218.747 591.319 222.16C591.319 225.52 592.092 228.56 593.639 231.28C595.185 233.947 597.292 236.08 599.959 237.68C602.625 239.227 605.612 240 608.919 240Z" fill="white"/>
</g>
<defs>
<filter id="filter0_d_30_13" x="360.62" y="54.28" width="530.986" height="106.9" filterUnits="userSpaceOnUse" color-interpolation-filters="sRGB">
<feFlood flood-opacity="0" result="BackgroundImageFix"/>
<feColorMatrix in="SourceAlpha" type="matrix" values="0 0 0 0 0 0 0 0 0 0 0 0 0 0 0 0 0 0 127 0" result="hardAlpha"/>
<feOffset dy="7"/>
<feGaussianBlur stdDeviation="2.85"/>
<feComposite in2="hardAlpha" operator="out"/>
<feColorMatrix type="matrix" values="0 0 0 0 0 0 0 0 0 0 0 0 0 0 0 0 0 0 0.25 0"/>
<feBlend mode="normal" in2="BackgroundImageFix" result="effect1_dropShadow_30_13"/>
<feBlend mode="normal" in="SourceGraphic" in2="effect1_dropShadow_30_13" result="shape"/>
</filter>
<filter id="filter1_d_30_13" x="365.061" y="180.72" width="271.077" height="75.9801" filterUnits="userSpaceOnUse" color-interpolation-filters="sRGB">
<feFlood flood-opacity="0" result="BackgroundImageFix"/>
<feColorMatrix in="SourceAlpha" type="matrix" values="0 0 0 0 0 0 0 0 0 0 0 0 0 0 0 0 0 0 127 0" result="hardAlpha"/>
<feOffset dy="7"/>
<feGaussianBlur stdDeviation="2.45"/>
<feComposite in2="hardAlpha" operator="out"/>
<feColorMatrix type="matrix" values="0 0 0 0 0 0 0 0 0 0 0 0 0 0 0 0 0 0 0.25 0"/>
<feBlend mode="normal" in2="BackgroundImageFix" result="effect1_dropShadow_30_13"/>
<feBlend mode="normal" in="SourceGraphic" in2="effect1_dropShadow_30_13" result="shape"/>
</filter>
</defs>
</svg>
